# 3ds Max Wavefront OBJ Exporter v0.97b - (c)2007 guruware
# File Created: 06.02.2015 02:32:20

#
# object Selection
#

v  2.0000 0.0000 -4.5000
v  2.0000 0.0000 -3.5000
v  1.0000 0.0000 -4.5000
v  -1.0000 0.0000 -4.5000
v  -2.0000 0.0000 -3.5000
v  -2.0000 0.0000 -4.5000
v  2.0000 0.0000 3.5000
v  2.0000 0.0000 4.5000
v  1.0000 0.0000 4.5000
v  -1.0000 0.0000 4.5000
v  -2.0000 0.0000 4.5000
v  -2.0000 0.0000 3.5000
v  2.0000 0.5000 -4.5000
v  -2.0000 0.5000 -4.5000
v  -2.0000 0.5000 4.5000
v  2.0000 0.5000 4.5000
# 16 vertices

vn 0.0000 -1.0000 -0.0000
vn -0.0000 0.0000 -1.0000
vn -0.4437 0.8874 -0.1250
vn 0.4028 0.8218 -0.4028
vn -0.1250 0.8874 0.4437
vn 0.4437 0.8874 -0.1250
vn -0.4028 0.8218 -0.4028
vn -1.0000 0.0000 0.0000
vn 0.4437 0.8874 0.1250
vn -0.1250 0.8874 -0.4437
vn -0.4028 0.8218 0.4028
vn 0.0000 0.0000 1.0000
vn -0.4437 0.8874 0.1250
vn 0.4028 0.8218 0.4028
vn 0.1250 0.8874 -0.4437
vn 1.0000 0.0000 -0.0000
vn 0.1250 0.8874 0.4437
# 17 vertex normals

vt 1.0000 0.0000 0.0000
vt 1.0000 0.3333 0.0000
vt 0.6667 0.0000 0.0000
vt 0.3333 0.0000 0.0000
vt -0.0000 0.3333 0.0000
vt -0.0000 0.0000 0.0000
vt 1.0000 0.6667 0.0000
vt 1.0000 1.0000 0.0000
vt 0.6667 1.0000 0.0000
vt 0.3333 1.0000 0.0000
vt -0.0000 1.0000 0.0000
vt -0.0000 0.6667 0.0000
vt 0.0000 0.0000 0.0000
vt 0.0000 1.0000 0.0000
# 14 texture coords

g Selection
s 2
f -16/-14/-17 -15/-13/-17 -14/-12/-17 
f -13/-11/-17 -12/-10/-17 -11/-9/-17 
f -10/-8/-17 -9/-7/-17 -8/-6/-17 
f -7/-5/-17 -6/-4/-17 -5/-3/-17 
s 8
f -16/-2/-16 -14/-11/-15 -4/-1/-14 
s 28
f -12/-11/-13 -13/-12/-12 -3/-1/-11 
s 16
f -11/-2/-10 -12/-11/-13 -3/-1/-11 
s 52
f -7/-11/-9 -5/-12/-8 -2/-1/-7 
s 32
f -6/-2/-6 -7/-11/-9 -2/-1/-7 
s 100
f -8/-12/-5 -1/-1/-4 -10/-11/-3 
s 64
f -9/-2/-2 -10/-11/-3 -1/-1/-4 
s 76
f -14/-11/-15 -15/-12/-1 -4/-1/-14 
s 32
f -8/-12/-5 -9/-14/-6 -1/-7/-4 
s 64
f -15/-12/-1 -16/-14/-2 -4/-7/-14 
s 8
f -13/-12/-12 -11/-14/-16 -3/-7/-11 
s 16
f -5/-12/-8 -6/-14/-10 -2/-7/-7 
# 0 polygons - 16 triangles

