# 3ds Max Wavefront OBJ Exporter v0.97b - (c)2007 guruware
# File Created: 13.06.2015 12:53:55

#
# object Selection
#

v  -1.7500 0.0000 3.0000
v  -1.7500 0.0000 2.0000
v  -0.7500 0.0000 3.0000
v  0.7500 0.0000 3.0000
v  1.7500 0.0000 2.0000
v  1.7500 0.0000 3.0000
v  -1.7500 0.0000 -2.0000
v  -1.7500 0.0000 -3.0000
v  -0.7500 0.0000 -3.0000
v  0.7500 0.0000 -3.0000
v  1.7500 0.0000 -3.0000
v  1.7500 0.0000 -2.0000
v  -1.7500 0.5000 3.0000
v  1.7500 0.5000 3.0000
v  1.7500 0.5000 -3.0000
v  -1.7500 0.5000 -3.0000
# 16 vertices

vn 0.0000 -1.0000 -0.0000
vn 0.0000 -0.0000 1.0000
vn 0.4437 0.8874 0.1250
vn -0.4028 0.8218 0.4028
vn 0.1250 0.8874 -0.4437
vn -0.4437 0.8874 0.1250
vn 0.4028 0.8218 0.4028
vn 1.0000 -0.0000 -0.0000
vn -0.4437 0.8874 -0.1250
vn 0.1250 0.8874 0.4437
vn 0.4028 0.8218 -0.4028
vn 0.0000 -0.0000 -1.0000
vn 0.4437 0.8874 -0.1250
vn -0.4028 0.8218 -0.4028
vn -0.1250 0.8874 0.4437
vn -1.0000 -0.0000 0.0000
vn -0.1250 0.8874 -0.4437
vn -1.0000 -0.0000 -0.0000
vn 1.0000 -0.0000 0.0000
# 19 vertex normals

vt 1.0000 0.0000 0.0000
vt 1.0000 0.3333 0.0000
vt 0.6667 0.0000 0.0000
vt 0.3333 0.0000 0.0000
vt -0.0000 0.3333 0.0000
vt -0.0000 0.0000 0.0000
vt 1.0000 0.6667 0.0000
vt 1.0000 1.0000 0.0000
vt 0.6667 1.0000 0.0000
vt 0.3333 1.0000 0.0000
vt -0.0000 1.0000 0.0000
vt -0.0000 0.6667 0.0000
vt 0.0000 0.0000 0.0000
vt 0.0000 1.0000 0.0000
# 14 texture coords

g Selection
s 2
f -16/-14/-19 -15/-13/-19 -14/-12/-19 
f -13/-11/-19 -12/-10/-19 -11/-9/-19 
f -10/-8/-19 -9/-7/-19 -8/-6/-19 
f -7/-5/-19 -6/-4/-19 -5/-3/-19 
s 8
f -16/-2/-18 -14/-11/-17 -4/-1/-16 
s 28
f -12/-11/-15 -13/-12/-14 -3/-1/-13 
s 16
f -11/-2/-12 -12/-11/-15 -3/-1/-13 
s 52
f -7/-11/-11 -5/-12/-10 -2/-1/-9 
s 32
f -6/-2/-8 -7/-11/-11 -2/-1/-9 
s 100
f -8/-12/-7 -1/-1/-6 -10/-11/-5 
s 64
f -9/-2/-4 -10/-11/-5 -1/-1/-6 
s 76
f -14/-11/-17 -15/-12/-3 -4/-1/-16 
s 32
f -8/-12/-7 -9/-14/-8 -1/-7/-6 
s 64
f -15/-12/-3 -16/-14/-2 -4/-7/-16 
s 8
f -13/-12/-14 -11/-14/-18 -3/-7/-13 
s 16
f -5/-12/-10 -6/-14/-1 -2/-7/-9 
# 0 polygons - 16 triangles

