# 3ds Max Wavefront OBJ Exporter v0.97b - (c)2007 guruware
# File Created: 12.02.2015 20:22:00

#
# object Yaw
#

v  0.0500 0.0000 -0.0250
v  0.0500 0.0000 0.0250
v  0.0100 0.0000 0.0525
v  -0.0100 0.0000 0.0525
v  -0.0500 0.0000 0.0250
v  -0.0500 0.0000 -0.0250
v  -0.0100 0.0000 -0.0525
v  0.0100 0.0000 -0.0525
v  0.0400 0.1200 0.0250
v  0.0301 0.1000 0.0250
v  0.0302 0.0450 0.0250
v  0.0500 0.1000 0.0250
v  -0.0400 0.1200 -0.0250
v  -0.0300 0.1000 -0.0250
v  -0.0300 0.0450 -0.0250
v  -0.0500 0.1000 -0.0250
v  -0.0500 0.1000 0.0250
v  -0.0100 0.0250 0.0250
v  0.0100 0.0250 0.0250
v  0.0100 0.0250 -0.0250
v  -0.0100 0.0250 -0.0250
v  0.0053 0.0649 0.0051
v  0.0050 0.0799 0.0051
v  0.0052 0.0799 -0.0049
v  0.0050 0.0649 -0.0049
v  -0.0050 0.0800 0.0050
v  -0.0050 0.0650 0.0050
v  -0.0050 0.0650 -0.0050
v  -0.0050 0.0800 -0.0050
v  -0.0300 0.0450 0.0250
v  0.0298 0.0450 -0.0250
v  -0.0300 0.1000 0.0250
v  -0.0400 0.1200 0.0250
v  0.0500 0.1000 -0.0250
v  0.0300 0.1000 -0.0250
v  0.0400 0.1200 -0.0250
v  -0.0300 0.0800 -0.0050
v  -0.0300 0.0650 -0.0050
v  -0.0300 0.0800 0.0050
v  -0.0300 0.0650 0.0050
v  0.0300 0.0800 0.0050
v  0.0303 0.0650 0.0050
v  0.0302 0.0800 -0.0050
v  0.0300 0.0650 -0.0050
# 44 vertices

vn 0.0000 -1.0000 -0.0000
vn 0.0000 0.0000 1.0000
vn 0.2057 0.3292 0.9216
vn 0.0000 0.0000 -1.0000
vn -0.2057 0.3292 -0.9216
vn -1.0000 0.0000 -0.0000
vn -0.9732 0.2298 -0.0000
vn 0.3827 0.9239 -0.0000
vn -0.3817 0.9243 0.0025
vn -0.3855 0.9227 0.0000
vn -1.0000 -0.0038 0.0054
vn 1.0000 0.0000 -0.0000
vn 0.9239 0.3827 0.0000
vn -0.9229 0.3849 0.0074
vn -0.9227 0.3856 0.0052
vn -0.2057 0.3292 0.9216
vn -0.1354 0.5274 0.8388
vn 0.9732 0.2298 -0.0000
vn 0.1356 0.5281 0.8383
vn 0.1805 0.7278 0.6616
vn 0.1352 0.5267 -0.8393
vn 0.2057 0.3292 -0.9216
vn -0.1354 0.5274 -0.8388
vn -0.1805 0.7278 -0.6616
vn 0.9732 0.2298 0.0000
vn 0.0000 1.0000 0.0000
vn -0.0000 1.0000 0.0000
vn -0.9737 0.2277 0.0006
vn -0.0012 1.0000 -0.0000
vn -0.0003 1.0000 0.0009
vn -0.9733 0.2293 0.0041
vn -0.1805 0.7278 0.6616
vn 0.1805 0.7278 -0.6616
vn 1.0000 0.0000 0.0000
vn 1.0000 -0.0000 0.0000
vn 1.0000 -0.0000 -0.0000
vn -1.0000 0.0053 -0.0082
vn -1.0000 -0.0059 -0.0034
vn -1.0000 0.0042 0.0082
vn -0.9998 -0.0036 0.0189
vn 0.0065 -0.7055 0.7087
vn 0.0011 0.7087 0.7055
vn 0.0011 0.7055 0.7087
vn 0.0065 -0.7087 0.7055
vn -0.0065 0.7055 -0.7087
vn -0.0065 0.7087 -0.7055
vn -0.0011 -0.7086 -0.7056
vn -0.0011 -0.7055 -0.7087
vn 0.0000 -0.7071 -0.7071
vn 0.0000 0.7071 -0.7071
vn 0.0000 0.7071 0.7071
vn 0.0000 -0.7071 0.7071
# 52 vertex normals

vt 0.0000 1.0000 0.0000
vt 0.0000 0.0000 0.0000
vt 0.3750 0.0000 0.0000
vt 0.6304 0.0000 0.0000
vt 1.0000 0.0000 0.0000
vt 1.0000 1.0000 0.0000
vt 0.6161 1.0000 0.0000
vt 0.3850 1.0000 0.0000
vt 0.8333 0.0000 0.0000
vt 0.6836 0.1000 0.0000
vt 0.8019 0.8000 0.0000
vt 0.9200 0.0000 0.0000
vt 0.1667 1.0000 0.0000
vt 0.3814 1.0000 0.0000
vt 0.7176 1.0000 0.0000
vt 0.0800 0.9200 0.0000
vt 0.4126 1.0000 0.0000
vt 0.6273 1.0000 0.0000
vt 0.3891 1.0000 0.0000
vt 0.6014 1.0000 0.0000
vt 0.6177 1.0000 0.0000
vt 0.2748 1.0000 0.0000
vt 0.3204 0.1000 0.0000
vt 0.2300 0.8000 0.0000
vt 0.1667 0.0000 0.0000
vt 1.0000 0.9200 0.0000
vt 0.8333 1.0000 0.0000
vt 0.6161 0.0000 0.0000
vt 0.3850 0.0000 0.0000
# 29 texture coords

g Yaw
s off
f -44/-29/-52 -43/-28/-52 -42/-27/-52 -41/-26/-52 -40/-25/-52 -39/-24/-52 -38/-23/-52 -37/-22/-52 
s 2
f -36/-21/-51 -35/-20/-51 -34/-19/-51 -43/-28/-50 -33/-18/-51 
f -32/-17/-49 -31/-16/-49 -30/-15/-49 -39/-25/-48 -29/-14/-49 
s 1
f -40/-28/-47 -28/-28/-46 -29/-14/-46 -39/-28/-47 
s 4
f -27/-13/-45 -26/-12/-44 -25/-11/-43 -24/-10/-45 
s off
f -23/-19/-42 -22/-20/-42 -21/-9/-42 -20/-8/-42 
f -19/-7/-41 -18/-6/-41 -17/-15/-41 -16/-16/-41 
s 4
f -15/-6/-40 -27/-13/-45 -24/-10/-45 -30/-15/-40 
f -14/-8/-39 -25/-11/-43 -26/-12/-44 -34/-19/-38 
s 2
f -40/-28/-37 -27/-13/-36 -15/-6/-51 
f -15/-6/-51 -13/-7/-51 -12/-5/-51 -28/-28/-51 -40/-28/-37 
s 1
f -43/-28/-41 -44/-25/-41 -11/-4/-35 -33/-18/-35 
s 2
f -26/-12/-34 -42/-28/-33 -43/-28/-50 
f -34/-19/-51 -26/-12/-34 -43/-28/-50 
f -25/-11/-32 -14/-8/-49 -44/-28/-31 
f -14/-8/-49 -10/-9/-49 -9/-3/-49 -11/-4/-49 -44/-28/-31 
f -24/-10/-30 -38/-2/-29 -39/-25/-48 
f -39/-25/-48 -30/-15/-49 -24/-10/-30 
s 1
f -31/-16/-28 -32/-17/-27 -12/-5/-26 -13/-7/-28 
f -32/-17/-27 -29/-14/-46 -28/-28/-46 -12/-5/-26 
f -35/-20/-25 -36/-21/-24 -9/-3/-23 -10/-9/-22 
f -36/-21/-24 -33/-18/-35 -11/-4/-35 -9/-3/-23 
s 2
f -27/-13/-36 -41/-28/-21 -42/-28/-33 -26/-12/-34 
f -27/-13/-36 -40/-28/-37 -41/-28/-21 
f -25/-11/-32 -44/-28/-31 -37/-1/-20 
f -24/-10/-30 -25/-11/-32 -37/-1/-20 -38/-2/-29 
s 5
f -30/-15/-40 -31/-16/-28 -8/-16/-19 -7/-15/-18 
s 1
f -31/-16/-28 -13/-7/-28 -6/-7/-41 -8/-16/-19 
s 5
f -13/-7/-28 -15/-6/-40 -5/-6/-17 -6/-7/-41 
s 4
f -15/-6/-40 -30/-15/-40 -7/-15/-18 -5/-6/-17 
s 5
f -34/-19/-38 -35/-20/-25 -4/-20/-16 -3/-19/-15 
s 1
f -35/-20/-25 -10/-9/-22 -2/-9/-14 -4/-20/-16 
s 5
f -10/-9/-22 -14/-8/-39 -1/-8/-13 -2/-9/-14 
s 4
f -14/-8/-39 -34/-19/-38 -3/-19/-15 -1/-8/-13 
s 8
f -3/-19/-12 -4/-20/-11 -22/-20/-10 -23/-19/-9 
f -4/-20/-11 -2/-9/-8 -21/-9/-7 -22/-20/-10 
f -2/-9/-8 -1/-8/-6 -20/-8/-5 -21/-9/-7 
f -1/-8/-6 -3/-19/-12 -23/-19/-9 -20/-8/-5 
f -7/-15/-4 -8/-16/-3 -16/-16/-3 -17/-15/-4 
f -8/-16/-3 -6/-7/-2 -19/-7/-2 -16/-16/-3 
f -6/-7/-2 -5/-6/-1 -18/-6/-1 -19/-7/-2 
f -5/-6/-1 -7/-15/-4 -17/-15/-4 -18/-6/-1 
# 34 polygons - 8 triangles

