# 3ds Max Wavefront OBJ Exporter v0.97b - (c)2007 guruware
# File Created: 28.11.2015 15:17:02

#
# object Yaw
#

v  0.2000 0.0000 -0.2000
v  0.2000 0.0000 0.2487
v  -0.2000 0.0000 0.2487
v  -0.2000 0.0000 -0.2000
v  0.2500 0.2165 0.0997
v  0.2500 0.2165 -0.2500
v  -0.2500 0.2165 -0.2500
v  -0.2500 0.2165 0.0997
v  0.1500 0.1657 -0.1195
v  0.1500 0.2165 -0.0314
v  0.1500 0.2165 -0.1500
v  -0.1500 0.0647 -0.0588
v  -0.1500 0.1228 -0.0937
v  -0.1500 0.2165 0.0686
v  -0.1500 0.2165 0.0997
v  -0.1500 0.1919 0.1616
v  -0.1500 0.2165 -0.0314
v  -0.1500 0.1657 -0.1195
v  -0.1500 0.2165 -0.1500
v  0.1500 0.1572 0.2487
v  -0.1500 0.1572 0.2487
v  0.1000 0.2085 -0.1452
v  0.1000 0.3258 0.0580
v  0.1500 0.2825 0.0830
v  0.1500 0.2165 0.0686
v  0.1500 0.2392 0.1080
v  -0.1500 0.2825 0.0830
v  -0.1500 0.2392 0.1080
v  -0.1000 0.2085 -0.1452
v  -0.1000 0.3258 0.0580
v  0.0750 0.3042 0.0705
v  0.1000 0.2825 0.0830
v  0.0750 0.2609 0.0955
v  0.0500 0.2825 0.0830
v  0.0250 0.2825 0.0830
v  0.0000 0.2609 0.0955
v  -0.0250 0.2825 0.0830
v  -0.0000 0.3042 0.0705
v  -0.0750 0.2609 0.0955
v  -0.1000 0.2825 0.0830
v  -0.0750 0.3042 0.0705
v  -0.0500 0.2825 0.0830
v  0.0750 0.2342 -0.0508
v  0.1000 0.2125 -0.0383
v  0.0750 0.1909 -0.0258
v  0.0500 0.2125 -0.0383
v  0.0250 0.2125 -0.0383
v  0.0000 0.1909 -0.0258
v  -0.0250 0.2125 -0.0383
v  -0.0000 0.2342 -0.0508
v  -0.0750 0.1909 -0.0258
v  -0.1000 0.2125 -0.0383
v  -0.0750 0.2342 -0.0508
v  -0.0500 0.2125 -0.0383
v  -0.1500 0.1124 0.1238
v  -0.1500 0.1683 0.2207
v  0.1500 0.1124 0.1238
v  0.1500 0.1683 0.2207
v  0.1500 0.1919 0.1616
v  0.1500 0.2300 0.2275
v  0.1500 0.1867 0.2525
v  -0.1500 0.2300 0.2275
v  -0.1500 0.1867 0.2525
v  0.1230 0.0878 -0.0727
v  -0.1230 0.0878 -0.0727
v  -0.1000 0.1158 -0.0703
v  0.1000 0.1158 -0.0703
v  -0.1000 0.2733 0.2025
v  0.1000 0.2733 0.2025
v  0.0750 0.2516 0.2150
v  0.1000 0.2300 0.2275
v  0.0750 0.2083 0.2400
v  0.0500 0.2300 0.2275
v  0.0250 0.2300 0.2275
v  0.0000 0.2083 0.2400
v  -0.0250 0.2300 0.2275
v  -0.0000 0.2516 0.2150
v  -0.0750 0.2083 0.2400
v  -0.1000 0.2300 0.2275
v  -0.0750 0.2516 0.2150
v  -0.0500 0.2300 0.2275
v  0.0750 0.1816 0.0938
v  0.1000 0.1600 0.1063
v  0.0750 0.1383 0.1188
v  0.0500 0.1600 0.1063
v  0.0250 0.1600 0.1063
v  0.0000 0.1383 0.1188
v  -0.0250 0.1600 0.1063
v  -0.0000 0.1816 0.0938
v  -0.0750 0.1383 0.1188
v  -0.1000 0.1600 0.1063
v  -0.0750 0.1816 0.0938
v  -0.0500 0.1600 0.1063
v  0.1500 0.2165 0.0997
v  0.1500 0.1228 -0.0937
v  0.1500 0.0647 -0.0588
# 96 vertices

vn 0.0000 -1.0000 -0.0000
vn 0.9744 -0.2250 -0.0000
vn 0.0000 -0.2250 -0.9744
vn -0.9744 -0.2250 -0.0000
vn -1.0000 0.0000 -0.0000
vn 1.0000 0.0000 -0.0000
vn 0.7587 0.2413 0.6051
vn 0.0000 0.0000 1.0000
vn -0.7587 0.2413 0.6051
vn 0.7071 0.6124 -0.3536
vn 0.0000 0.8660 -0.5000
vn 0.0000 0.5000 0.8660
vn -0.7071 -0.6124 0.3536
vn -0.7071 0.6124 -0.3536
vn 0.7071 -0.6124 0.3536
vn 0.0000 0.9412 -0.3377
vn -1.0000 0.0000 0.0000
vn 0.0000 0.0870 -0.9962
vn -0.0000 1.0000 -0.0000
vn 0.0000 0.9291 0.3697
vn -0.0000 0.9291 0.3697
vn 0.0000 0.5149 0.8573
vn 0.0000 -0.8660 0.5000
vn -0.0000 -0.8660 0.5000
# 24 vertex normals

vt 0.0000 1.0000 0.0000
vt 0.0000 0.0000 0.0000
vt 1.0000 0.0000 0.0000
vt 1.0000 1.0000 0.0000
vt 0.2207 1.7793 0.0000
vt 0.8000 -0.0000 0.0000
vt 0.2207 1.0000 0.0000
vt 0.7940 1.0000 0.0000
vt 0.8238 1.0000 0.0000
vt 0.7941 1.0000 0.0000
vt 0.2727 1.0000 0.0000
vt 0.2525 1.0000 0.0000
vt 0.1803 1.0000 0.0000
vt 0.1746 1.0000 0.0000
vt 0.2254 1.0000 0.0000
vt 0.2733 1.0000 0.0000
vt 0.2713 1.0000 0.0000
vt 0.7937 1.0000 0.0000
vt 1.5437 0.2500 0.0000
vt 0.1746 0.0000 0.0000
vt 0.3773 0.5000 0.0000
vt 0.6679 0.5000 0.0000
vt 0.6700 0.9386 0.0000
vt -0.0003 0.9386 0.0000
vt -0.0000 0.5000 0.0000
vt 0.1299 0.0000 0.0000
vt 0.0000 0.5000 0.0000
vt 1.0000 0.5000 0.0000
vt 0.6227 0.5000 0.0000
vt 0.8701 0.0000 0.0000
vt 0.1667 0.6703 0.0000
vt 0.1667 0.0000 0.0000
vt 0.8333 0.0000 0.0000
vt 0.8333 0.6703 0.0000
vt 1.9908 2.0000 0.0000
vt 1.4931 1.5000 0.0000
vt 0.9954 1.0000 0.0000
vt 0.4977 0.5000 0.0000
vt 0.7234 0.5000 0.0000
vt 0.8571 0.5000 0.0000
vt 0.7162 0.5000 0.0000
vt 0.5714 0.5000 0.0000
vt 0.8682 0.5000 0.0000
vt 0.5385 0.5000 0.0000
vt 0.4592 0.5000 0.0000
vt 0.5008 0.5000 0.0000
vt 0.5393 0.5000 0.0000
vt 0.2724 0.5000 0.0000
vt 0.1429 0.5000 0.0000
vt 0.2577 0.5000 0.0000
vt 0.4286 0.5000 0.0000
vt 0.1016 0.5000 0.0000
vt 0.2178 1.0000 0.0000
vt 0.7938 1.0000 0.0000
vt 0.2777 1.0000 0.0000
vt 0.2776 1.0000 0.0000
vt 0.8055 1.0000 0.0000
vt 0.1048 0.0000 0.0000
vt 0.2176 0.5000 0.0000
vt 0.7824 0.5000 0.0000
vt 0.8952 0.0000 0.0000
vt 0.0901 0.7425 0.0000
vt 0.9099 0.7425 0.0000
vt 0.8333 0.9486 0.0000
vt 0.1667 0.9486 0.0000
vt 0.8333 0.9000 0.0000
vt 0.1667 0.9000 0.0000
vt 1.0270 -2.1861 0.0000
vt 1.0492 -2.4971 0.0000
vt 1.2492 -2.4971 0.0000
vt 0.2492 -2.4971 0.0000
vt 0.4492 -2.4971 0.0000
vt 0.4270 -2.1861 0.0000
vt 0.3558 -1.1861 0.0000
vt 0.2713 0.0000 0.0000
vt 0.8713 0.0000 0.0000
vt 0.9558 -1.1861 0.0000
vt 0.8630 1.0000 0.0000
vt 0.8433 1.0000 0.0000
vt 0.8038 1.0000 0.0000
vt 0.8306 1.0000 0.0000
vt 0.8568 1.0000 0.0000
vt 0.8568 0.0000 0.0000
vt 0.8306 0.4150 0.0000
vt 0.8055 0.8121 0.0000
vt 0.2712 1.0000 0.0000
vt 0.3584 1.0000 0.0000
vt 0.7069 1.0000 0.0000
vt 1.0000 0.6654 0.0000
vt 0.0000 0.6654 0.0000
vt 0.0000 0.1299 0.0000
vt 1.0000 0.1299 0.0000
vt 0.3296 0.8911 0.0000
vt 0.3317 0.4527 0.0000
vt 0.6225 0.4733 0.0000
vt 1.0003 0.9386 0.0000
vt 0.2750 1.0000 0.0000
vt 0.2773 1.0000 0.0000
vt 0.3228 1.0000 0.0000
vt 0.7459 1.0000 0.0000
vt 0.7933 1.0000 0.0000
vt 0.7910 1.0000 0.0000
vt 0.9446 0.5000 0.0000
vt 0.9458 0.7371 0.0000
vt 0.8997 0.9386 0.0000
vt 1.0000 0.1048 0.0000
vt 1.0000 0.4247 0.0000
vt 0.0000 0.4247 0.0000
vt 0.0000 0.1048 0.0000
vt 0.0539 0.7026 0.0000
vt 0.0554 0.5000 0.0000
vt 0.9998 0.8748 0.0000
vt 0.0998 0.8748 0.0000
# 113 texture coords

g Yaw
s off
f -96/-113/-24 -95/-112/-24 -94/-111/-24 -93/-110/-24 
f -92/-109/-23 -95/-113/-23 -96/-111/-23 -91/-110/-23 
f -96/-112/-22 -93/-108/-22 -90/-110/-22 -91/-113/-22 
f -93/-112/-21 -94/-111/-21 -89/-110/-21 -90/-107/-21 
f -88/-106/-20 -87/-105/-20 -86/-104/-20 
f -85/-103/-19 -84/-102/-19 -83/-101/-19 -82/-100/-19 -81/-100/-19 
f -80/-99/-19 -79/-98/-19 -78/-97/-19 
f -92/-111/-18 -77/-96/-18 -95/-111/-18 
f -77/-96/-17 -76/-95/-17 -94/-111/-17 -95/-113/-17 
f -89/-112/-16 -94/-111/-16 -76/-94/-16 
f -87/-93/-15 -88/-92/-15 -75/-91/-15 -74/-90/-15 -73/-89/-15 
f -72/-88/-19 -87/-93/-19 -73/-87/-19 -71/-112/-19 
f -70/-86/-20 -80/-85/-20 -83/-84/-20 -69/-111/-20 
f -68/-83/-14 -67/-82/-14 -74/-81/-14 -75/-80/-14 
f -74/-79/-13 -66/-78/-13 -65/-77/-13 -64/-76/-13 -63/-77/-13 -62/-77/-13 -61/-76/-13 -60/-77/-13 -59/-78/-13 -62/-77/-13 -63/-77/-13 -66/-78/-13 -74/-79/-13 -67/-79/-13 -70/-77/-13 -69/-112/-13 -58/-76/-13 -57/-77/-13 -56/-78/-13 -55/-77/-13 -58/-76/-13 -69/-112/-13 -71/-112/-13 -73/-77/-13 
f -66/-75/-12 -54/-75/-12 -53/-74/-12 -65/-74/-12 
f -64/-73/-11 -65/-74/-11 -53/-74/-11 -52/-73/-11 
f -64/-73/-15 -52/-73/-15 -51/-72/-15 -63/-72/-15 
f -54/-75/-13 -51/-72/-13 -52/-73/-13 -53/-71/-13 
f -61/-76/-11 -62/-70/-11 -50/-70/-11 -49/-76/-11 
f -61/-76/-15 -49/-76/-15 -48/-69/-15 -60/-69/-15 
f -59/-68/-10 -60/-69/-10 -48/-69/-10 -47/-68/-10 
f -48/-69/-13 -49/-76/-13 -50/-67/-13 -47/-68/-13 
f -58/-66/-15 -46/-66/-15 -45/-65/-15 -57/-65/-15 
f -56/-64/-10 -57/-65/-10 -45/-65/-10 -44/-64/-10 
f -56/-64/-12 -44/-64/-12 -43/-63/-12 -55/-63/-12 
f -46/-66/-13 -43/-63/-13 -44/-64/-13 -45/-62/-13 
f -43/-63/-11 -46/-66/-11 -58/-66/-11 -55/-63/-11 
f -51/-72/-10 -54/-75/-10 -66/-75/-10 -63/-72/-10 
f -50/-70/-12 -62/-70/-12 -59/-68/-12 -47/-68/-12 
f -42/-61/-19 -41/-100/-19 -76/-100/-19 
f -40/-60/-9 -42/-59/-9 -76/-58/-9 -77/-96/-9 
f -39/-57/-8 -40/-60/-8 -77/-96/-8 
f -39/-56/-19 -38/-55/-19 -37/-87/-19 -36/-112/-19 
f -35/-86/-20 -81/-54/-20 -41/-53/-20 -34/-111/-20 
f -33/-52/-7 -32/-51/-7 -31/-50/-7 -30/-49/-7 
f -30/-48/-14 -31/-47/-14 -29/-82/-14 -28/-81/-14 
f -28/-79/-13 -27/-78/-13 -26/-77/-13 -25/-76/-13 -24/-77/-13 -23/-77/-13 -22/-76/-13 -21/-77/-13 -20/-78/-13 -23/-77/-13 -24/-77/-13 -27/-78/-13 -28/-79/-13 -29/-79/-13 -35/-77/-13 -34/-112/-13 -19/-76/-13 -18/-77/-13 -17/-78/-13 -16/-77/-13 -19/-76/-13 -34/-112/-13 -36/-112/-13 -37/-77/-13 
f -27/-75/-12 -15/-75/-12 -14/-74/-12 -26/-74/-12 
f -25/-73/-11 -26/-74/-11 -14/-74/-11 -13/-73/-11 
f -25/-73/-15 -13/-73/-15 -12/-72/-15 -24/-72/-15 
f -12/-72/-13 -13/-73/-13 -14/-71/-13 -15/-75/-13 
f -22/-76/-11 -23/-70/-11 -11/-70/-11 -10/-76/-11 
f -22/-76/-15 -10/-76/-15 -9/-69/-15 -21/-69/-15 
f -20/-68/-10 -21/-69/-10 -9/-69/-10 -8/-68/-10 
f -9/-69/-13 -10/-76/-13 -11/-67/-13 -8/-68/-13 
f -19/-66/-15 -7/-66/-15 -6/-65/-15 -18/-65/-15 
f -17/-64/-10 -18/-65/-10 -6/-65/-10 -5/-64/-10 
f -17/-64/-12 -5/-64/-12 -4/-63/-12 -16/-63/-12 
f -4/-63/-13 -5/-64/-13 -6/-62/-13 -7/-66/-13 
f -4/-63/-11 -7/-66/-11 -19/-66/-11 -16/-63/-11 
f -12/-72/-10 -15/-75/-10 -27/-75/-10 -24/-72/-10 
f -11/-70/-12 -23/-70/-12 -20/-68/-12 -8/-68/-12 
f -72/-46/-6 -3/-45/-6 -92/-44/-6 -91/-110/-6 -90/-113/-6 -89/-43/-6 -82/-42/-6 -83/-41/-6 -80/-40/-6 -78/-39/-6 -86/-38/-6 -87/-37/-6 
f -72/-36/-8 -2/-35/-8 -1/-34/-8 -38/-33/-8 -3/-32/-8 
f -81/-94/-5 -82/-94/-5 -89/-112/-5 -76/-94/-5 -41/-94/-5 
f -92/-111/-4 -3/-31/-4 -38/-30/-4 -39/-29/-4 -77/-96/-4 
f -78/-97/-3 -79/-28/-3 -68/-27/-3 -75/-26/-3 -88/-106/-3 -86/-104/-3 
f -84/-25/-2 -2/-24/-2 -72/-23/-2 -71/-112/-2 -69/-111/-2 -83/-22/-2 
f -68/-21/-11 -79/-20/-11 -80/-19/-11 -70/-86/-11 -67/-18/-11 
f -84/-17/-3 -85/-16/-3 -32/-15/-3 -33/-14/-3 -1/-13/-3 -2/-12/-3 
f -38/-55/-15 -1/-11/-15 -33/-10/-15 -30/-9/-15 -28/-90/-15 -37/-89/-15 
f -36/-112/-1 -34/-111/-1 -41/-8/-1 -42/-7/-1 -40/-6/-1 -39/-5/-1 
f -32/-4/-11 -85/-3/-11 -81/-54/-11 -35/-86/-11 -29/-2/-11 -31/-1/-11 
# 58 polygons - 6 triangles

