# 3ds Max Wavefront OBJ Exporter v0.97b - (c)2007 guruware
# File Created: 29.11.2015 08:29:40

#
# object Yaw
#

v  0.4000 0.1000 -0.0000
v  0.3464 0.1000 -0.2000
v  0.4000 0.2000 -0.0000
v  -0.4000 0.1000 -0.0000
v  -0.3464 0.1000 0.2000
v  -0.3464 0.2000 0.2000
v  -0.4000 0.2000 -0.0000
v  -0.2000 0.1000 0.3464
v  -0.2000 0.1500 0.3464
v  -0.0000 0.1000 0.4000
v  -0.0000 0.1500 0.4000
v  0.2000 0.1000 0.3464
v  0.2000 0.1500 0.3464
v  0.3464 0.1000 0.2000
v  0.3464 0.2000 0.2000
v  -0.3464 0.1000 -0.2000
v  0.4000 0.0000 -0.0000
v  0.3464 0.0000 -0.2000
v  -0.2000 0.0000 -0.3464
v  -0.3464 0.0000 -0.2000
v  -0.4000 0.0000 -0.0000
v  -0.3464 0.0000 0.2000
v  -0.2000 0.0000 0.3464
v  -0.0000 0.0000 0.4000
v  0.2000 0.0000 0.3464
v  0.3464 0.0000 0.2000
v  0.2000 0.0000 -0.3464
# 27 vertices

vn 1.0000 0.0000 0.0000
vn 0.9659 0.0000 -0.2588
vn 0.9990 0.0000 0.0447
vn -1.0000 0.0000 -0.0000
vn -0.8660 0.0000 0.5000
vn -0.8767 0.0000 0.4810
vn -0.9990 0.0000 0.0447
vn -0.5000 0.0000 0.8660
vn -0.5162 0.0000 0.8565
vn -0.0000 0.0000 1.0000
vn 0.5000 0.0000 0.8660
vn 0.5162 0.0000 0.8565
vn 0.8660 0.0000 0.5000
vn 0.8767 0.0000 0.4810
vn 0.0000 1.0000 -0.0000
vn -0.9659 0.0000 -0.2588
vn -0.7071 0.0000 -0.7071
vn -0.9659 0.0000 0.2588
vn -0.7071 0.0000 0.7071
vn -0.2588 0.0000 0.9659
vn 0.2588 0.0000 0.9659
vn 0.7071 0.0000 0.7071
vn 0.9659 0.0000 0.2588
vn 0.0000 -1.0000 -0.0000
vn 0.7071 0.0000 -0.7071
vn 0.0000 0.8944 -0.4472
vn 0.0000 0.8258 -0.5640
vn -0.0000 0.9575 0.2884
# 28 vertex normals

vt 0.7500 0.0000 1.0000
vt 0.8333 0.0000 1.0000
vt 0.7500 1.0000 1.0000
vt 0.2500 0.0000 1.0000
vt 0.3333 0.0000 1.0000
vt 0.3333 1.0000 1.0000
vt 0.2500 1.0000 1.0000
vt 0.4167 0.0000 1.0000
vt 0.4167 1.0000 1.0000
vt 0.5000 0.0000 1.0000
vt 0.5000 1.0000 1.0000
vt 0.5833 0.0000 1.0000
vt 0.5833 1.0000 1.0000
vt 0.6667 0.0000 1.0000
vt 0.6667 1.0000 1.0000
vt 0.5000 0.0000 0.2500
vt 0.7500 0.0670 0.2500
vt 0.7500 0.9330 0.2500
vt 0.5000 1.0000 0.2500
vt 0.1667 0.0000 1.0000
vt 0.0833 0.0000 1.0000
vt 0.9167 0.0000 1.0000
vt 0.9330 0.2500 0.2500
vt 1.0000 0.5000 0.2500
vt 0.9330 0.7500 0.2500
# 25 texture coords

g Yaw
s 1
f -27/-25/-28 -26/-24/-27 -25/-23/-26 
f -24/-22/-25 -23/-21/-24 -22/-20/-23 -21/-19/-22 
f -23/-21/-24 -20/-18/-21 -19/-17/-20 -22/-20/-23 
f -20/-18/-21 -18/-16/-19 -17/-15/-19 -19/-17/-20 
f -18/-16/-19 -16/-14/-18 -15/-13/-17 -17/-15/-19 
f -16/-14/-18 -14/-12/-16 -13/-11/-15 -15/-13/-17 
f -14/-12/-16 -27/-25/-28 -25/-23/-26 -13/-11/-15 
s off
f -21/-10/-14 -22/-9/-14 -13/-8/-14 -25/-7/-14 
s 1
f -12/-6/-13 -24/-22/-25 -21/-19/-22 
s off
f -26/-24/-27 -27/-25/-27 -11/-25/-27 -10/-24/-27 
f -12/-6/-12 -9/-5/-12 -8/-6/-12 
f -24/-22/-13 -12/-6/-13 -8/-6/-13 -7/-22/-13 
f -23/-21/-11 -24/-22/-11 -7/-22/-11 -6/-21/-11 
f -20/-18/-10 -23/-21/-10 -6/-21/-10 -5/-18/-10 
f -18/-16/-9 -20/-18/-9 -5/-18/-9 -4/-16/-9 
f -16/-14/-8 -18/-16/-8 -4/-16/-8 -3/-14/-8 
f -14/-12/-7 -16/-14/-7 -3/-14/-7 -2/-12/-7 
f -27/-25/-6 -14/-12/-6 -2/-12/-6 -11/-25/-6 
f -9/-5/-5 -1/-4/-5 -10/-24/-5 -11/-25/-5 -2/-12/-5 -3/-14/-5 -4/-16/-5 -5/-18/-5 -6/-21/-5 -7/-22/-5 -8/-6/-5 
f -26/-24/-4 -10/-24/-4 -1/-4/-4 
f -26/-24/-3 -12/-6/-3 -21/-19/-3 -25/-7/-3 
f -1/-4/-2 -9/-5/-2 -12/-6/-2 -26/-24/-2 
f -19/-3/-1 -17/-2/-1 -15/-1/-1 -13/-8/-1 -22/-9/-1 
# 19 polygons - 4 triangles

