# 3ds Max Wavefront OBJ Exporter v0.97b - (c)2007 guruware
# File Created: 29.11.2015 08:29:14

#
# object Pitch
#

v  0.3464 0.1000 -0.2000
v  0.4000 0.1000 0.0000
v  0.4000 0.0000 0.0000
v  0.3464 0.0000 -0.2000
v  0.2000 0.1000 -0.3464
v  0.2000 0.0000 -0.3464
v  -0.3464 0.1000 -0.2000
v  -0.2000 0.1000 -0.3464
v  -0.2000 0.0000 -0.3464
v  -0.3464 0.0000 -0.2000
v  -0.4000 0.1000 -0.0000
v  -0.4000 0.0000 -0.0000
v  -0.3464 0.1000 0.2000
v  -0.3464 0.0000 0.2000
v  0.3464 0.1000 0.2000
v  0.3464 0.0000 0.2000
v  0.2000 0.2000 0.0000
v  -0.0000 0.1000 -0.4000
v  -0.2000 0.2000 -0.0000
v  -0.2000 0.2000 0.2000
v  0.2000 0.2000 0.2000
v  0.2000 0.1750 0.5997
v  0.2000 0.1751 0.2000
v  0.1249 0.1000 0.2000
v  0.1250 0.1000 0.5997
v  0.2000 0.0249 0.2000
v  0.2000 0.0250 0.5997
v  0.2751 0.1000 0.2000
v  0.2750 0.1000 0.5997
v  0.0751 0.1000 0.2000
v  -0.0000 0.1751 0.2000
v  -0.0000 0.1750 0.5997
v  0.0750 0.1000 0.5997
v  -0.0751 0.1000 0.2000
v  -0.0750 0.1000 0.5997
v  0.0000 0.0249 0.2000
v  0.0000 0.0250 0.5997
v  -0.1249 0.1000 0.5997
v  -0.1249 0.1000 0.2000
v  -0.2000 0.1751 0.2000
v  -0.2000 0.1751 0.5997
v  -0.2751 0.1000 0.2000
v  -0.2751 0.1000 0.5997
v  -0.2000 0.0249 0.2000
v  -0.2000 0.0249 0.5997
v  -0.1000 0.0000 0.2000
v  0.1000 0.0000 0.2000
v  0.2000 0.0000 0.2000
v  -0.2001 0.0000 0.2000
v  0.2000 -0.2000 -0.3464
v  0.2000 -0.2000 0.0033
v  0.1000 -0.2000 -0.0064
v  0.1000 -0.2000 -0.3732
v  -0.1000 -0.2000 -0.3732
v  -0.1000 -0.2000 -0.0064
v  -0.2000 -0.2000 0.0033
v  -0.2000 -0.2000 -0.3464
v  0.1000 -0.1539 0.1083
v  0.2000 -0.1539 0.1126
v  0.1000 -0.0884 0.1771
v  0.2000 -0.0884 0.1781
v  -0.2001 -0.1539 0.1126
v  -0.1000 -0.1539 0.1083
v  -0.2001 -0.0884 0.1781
v  -0.1000 -0.0884 0.1771
v  -0.0000 0.1750 0.8000
v  0.0071 0.1679 0.7900
v  0.0071 0.1680 0.6097
v  -0.2000 0.1751 0.8000
v  -0.1929 0.1681 0.7900
v  -0.1929 0.1681 0.6097
v  0.2679 0.0929 0.7900
v  0.2750 0.1000 0.8000
v  0.2000 0.0250 0.8000
v  0.2071 0.0320 0.6097
v  0.2071 0.0321 0.7900
v  0.2000 0.0391 0.6097
v  0.2000 0.0391 0.7900
v  0.1929 0.1680 0.6097
v  0.2000 0.1609 0.6097
v  0.2000 0.1609 0.7900
v  0.1929 0.1679 0.7900
v  0.2071 0.1680 0.6097
v  0.2071 0.1679 0.7900
v  0.1929 0.0321 0.7900
v  0.1929 0.0320 0.6097
v  0.0071 0.0321 0.7900
v  0.0071 0.0320 0.6097
v  0.0000 0.0391 0.6097
v  0.0000 0.0392 0.7900
v  -0.0071 0.1680 0.6097
v  -0.0000 0.1609 0.6097
v  -0.0000 0.1608 0.7900
v  -0.0071 0.1679 0.7900
v  -0.1319 0.0929 0.7900
v  -0.1390 0.1000 0.7900
v  -0.1390 0.1000 0.6097
v  -0.1319 0.0929 0.6097
v  -0.1929 0.0319 0.7900
v  -0.1929 0.0319 0.6097
v  -0.2000 0.0390 0.6097
v  -0.2000 0.0390 0.7900
v  -0.2071 0.1681 0.6097
v  -0.2000 0.1610 0.6097
v  -0.2000 0.1610 0.7900
v  -0.2071 0.1681 0.7900
v  -0.2681 0.1071 0.7900
v  -0.2610 0.1000 0.7900
v  -0.2610 0.1000 0.6097
v  -0.2681 0.1071 0.6097
v  -0.1319 0.1071 0.6097
v  -0.1319 0.1071 0.7900
v  -0.2681 0.0929 0.7900
v  -0.2681 0.0929 0.6097
v  -0.2071 0.0319 0.7900
v  -0.2071 0.0319 0.6097
v  -0.1000 0.0000 -0.3732
v  -0.0000 0.0000 -0.4000
v  0.1000 0.0000 -0.3732
v  0.2679 0.1071 0.7900
v  0.2680 0.1071 0.6097
v  0.0000 0.0250 0.8000
v  -0.0071 0.0321 0.7900
v  -0.0071 0.0320 0.6097
v  0.0680 0.0929 0.6097
v  0.0750 0.1000 0.8000
v  0.0679 0.0929 0.7900
v  -0.2000 0.0249 0.8000
v  -0.1249 0.1000 0.8000
v  0.2000 0.1750 0.8000
v  0.2680 0.0929 0.6097
v  0.1320 0.0929 0.6097
v  0.1250 0.1000 0.8000
v  0.1321 0.0929 0.7900
v  0.1321 0.1071 0.7900
v  0.1320 0.1071 0.6097
v  0.1391 0.1000 0.6097
v  0.1391 0.1000 0.7900
v  0.2609 0.1000 0.6097
v  0.2609 0.1000 0.7900
v  -0.0680 0.0929 0.6097
v  0.0679 0.1071 0.7900
v  -0.0750 0.1000 0.8000
v  -0.0679 0.1071 0.7900
v  0.0680 0.1071 0.6097
v  0.0609 0.1000 0.6097
v  0.0608 0.1000 0.7900
v  -0.0679 0.0929 0.7900
v  -0.0680 0.1071 0.6097
v  -0.0609 0.1000 0.6097
v  -0.0608 0.1000 0.7900
v  -0.2751 0.1000 0.8000
v  -0.1390 0.1000 0.8000
v  -0.2000 0.0390 0.8000
v  -0.2000 0.1610 0.8000
v  -0.2610 0.1000 0.8000
v  0.0000 0.0392 0.8000
v  0.0608 0.1000 0.8000
v  -0.0608 0.1000 0.8000
v  -0.0000 0.1608 0.8000
v  0.2609 0.1000 0.8000
v  0.2000 0.0391 0.8000
v  0.2000 0.1609 0.8000
v  0.1391 0.1000 0.8000
# 164 vertices

vn 0.8660 0.0000 -0.5000
vn 1.0000 0.0000 0.0000
vn 0.7071 0.0000 -0.7071
vn -0.8660 0.0000 -0.5000
vn -0.7071 0.0000 -0.7071
vn -1.0000 0.0000 -0.0000
vn -0.9659 0.0000 0.2588
vn 0.9659 0.0000 0.2588
vn 0.4472 0.8944 0.0000
vn 0.2289 0.9689 -0.0938
vn 0.4440 0.8881 0.1190
vn 0.1348 0.9520 -0.2748
vn -0.0000 0.9641 -0.2654
vn -0.1348 0.9520 -0.2748
vn -0.3325 0.9181 -0.2157
vn -0.2289 0.9689 -0.0938
vn -0.2952 0.9554 0.0000
vn 0.2952 0.9554 0.0000
vn 0.3325 0.9181 -0.2157
vn 0.5640 0.8258 0.0000
vn -0.4472 0.8944 -0.0000
vn -0.4440 0.8881 0.1190
vn -0.5640 0.8258 -0.0000
vn -0.7071 0.7071 0.0001
vn -0.7071 -0.7071 0.0001
vn 0.7071 -0.7071 0.0001
vn 0.7071 0.7071 0.0002
vn -0.7071 0.7071 0.0002
vn -0.7071 -0.7071 0.0002
vn 0.7071 -0.7071 0.0002
vn 0.7071 0.7071 0.0000
vn -0.7071 0.7071 0.0000
vn -0.7071 -0.7071 0.0000
vn 0.7071 -0.7071 0.0000
vn -0.0000 0.0000 1.0000
vn 0.0000 -1.0000 -0.0000
vn -0.0149 -0.9787 0.2047
vn -0.0172 -0.9838 0.1786
vn 0.0133 -0.9830 0.1829
vn 0.0202 -0.9776 0.2097
vn -0.0278 -0.8404 0.5412
vn -0.0178 -0.8305 0.5567
vn -0.0153 -0.5027 0.8643
vn -0.0065 -0.4932 0.8699
vn -0.0055 -0.2459 0.9693
vn -0.0000 -0.2400 0.9708
vn 0.0284 -0.8296 0.5576
vn 0.0174 -0.8402 0.5420
vn 0.0154 -0.4958 0.8683
vn 0.0064 -0.5054 0.8628
vn 0.0055 -0.2452 0.9694
vn -0.0000 -0.2511 0.9680
vn 0.7071 0.7071 0.0003
vn 0.7071 0.7071 -0.0001
vn -0.7071 -0.7071 -0.0001
vn 0.7071 -0.7071 -0.0001
vn -0.7071 0.7071 -0.0001
vn 0.7071 0.7071 -0.0003
vn -0.7071 -0.7071 -0.0003
vn -0.7071 -0.7071 -0.0000
vn 0.7071 0.7071 -0.0000
vn 0.7071 -0.7071 -0.0000
vn -0.7071 0.7071 -0.0000
vn 0.2588 0.0000 -0.9659
vn 1.0000 0.0000 -0.0000
vn -1.0000 -0.0000 0.0000
vn -1.0000 -0.0000 -0.0001
vn -1.0000 0.0000 -0.0001
vn -0.2588 0.0000 -0.9659
vn 1.0000 -0.0000 0.0001
vn 1.0000 0.0000 0.0001
vn 0.7071 0.7071 0.0001
vn -0.7071 0.7071 0.0003
vn -0.7071 -0.7071 0.0003
vn 0.7071 -0.7071 0.0003
vn 0.0005 -0.0006 1.0000
vn -0.0001 -0.0001 1.0000
vn 0.0001 -0.0001 1.0000
vn -0.0005 -0.0006 1.0000
vn -0.0000 -0.0001 1.0000
vn -0.0001 0.0001 -1.0000
vn 0.0001 0.0001 -1.0000
vn -0.0005 0.0006 -1.0000
vn 0.0005 0.0006 -1.0000
vn -0.7071 0.7071 -0.0003
vn 0.7071 -0.7071 -0.0003
vn 0.0002 -0.0002 1.0000
vn 0.0000 -0.0002 1.0000
vn 0.0011 -0.0013 1.0000
vn -0.0011 -0.0013 1.0000
vn -0.0002 -0.0002 1.0000
vn -0.0002 0.0002 -1.0000
vn 0.0002 0.0002 -1.0000
vn -0.0011 0.0013 -1.0000
vn 0.0010 0.0013 -1.0000
vn 0.0000 -0.0000 1.0000
vn -0.0000 -0.0000 1.0000
vn -0.0000 0.0000 -1.0000
vn 0.0000 0.0001 -1.0000
vn 0.0000 0.0000 -1.0000
vn 0.0000 0.0000 1.0000
# 101 vertex normals

vt 0.8333 1.0000 1.0000
vt 0.7500 1.0000 1.0000
vt 0.7500 0.0000 1.0000
vt 0.8333 0.0000 1.0000
vt 0.9167 1.0000 1.0000
vt 0.9167 0.0000 1.0000
vt 0.1667 1.0000 1.0000
vt 0.0833 1.0000 1.0000
vt 0.0833 0.0000 1.0000
vt 0.1667 0.0000 1.0000
vt 0.2500 1.0000 1.0000
vt 0.2500 0.0000 1.0000
vt 0.3333 1.0000 1.0000
vt 0.3333 0.0000 1.0000
vt 0.6667 1.0000 1.0000
vt 0.6667 0.0000 1.0000
vt 0.5000 1.0000 0.2500
vt 0.4107 0.7243 0.2500
vt 0.7500 0.9330 0.2500
vt 0.0670 0.7500 0.2500
vt 0.0000 0.5000 0.2500
vt 0.0670 0.2500 0.2500
vt 0.2500 0.0670 0.2500
vt 0.4065 0.2511 0.2500
vt 0.7500 0.2523 0.2500
vt 0.7500 0.7121 0.2500
vt 0.4107 0.2645 0.2500
vt 0.2500 0.9330 0.2500
vt 0.7500 0.6989 0.2500
vt 0.5000 0.0000 0.2500
vt 0.7500 0.0670 0.2500
vt 0.6607 0.9474 0.4107
vt 0.6310 0.9522 0.4643
vt 0.6310 0.9521 0.4643
vt 0.6600 0.9475 0.4119
vt 0.6905 0.9426 0.3571
vt 0.6905 0.9426 0.3572
vt 0.5714 0.9617 0.5714
vt 0.5417 0.9665 0.6250
vt 0.5417 0.9665 0.6249
vt 0.5119 0.9713 0.6786
vt 0.5119 0.9713 0.6785
vt 0.5416 0.9665 0.6252
vt 0.5415 0.9665 0.6252
vt 0.5714 0.9617 0.5715
vt 0.4524 0.9809 0.7857
vt 0.4226 0.9856 0.8393
vt 0.3929 0.9904 0.8929
vt 0.4203 0.9860 0.8434
vt 0.7206 0.0434 0.1907
vt -0.5377 3.7927 3.5787
vt -0.5318 3.7975 3.4898
vt -0.5139 3.8119 3.2211
vt -1.4660 6.6234 5.8674
vt -1.4899 6.6045 6.2254
vt -0.5556 3.7783 3.8475
vt 0.3966 0.9666 1.2009
vt 0.6968 0.0242 0.5484
vt 0.6848 0.0146 0.7273
vt 0.6674 0.0006 0.9891
vt -0.5880 3.7523 4.3327
vt -1.8259 7.5181 7.4144
vt -0.5616 3.7735 3.9366
vt -1.5130 6.5829 6.5810
vt -0.5795 3.7592 4.2051
vt 0.3719 0.9498 1.5607
vt -1.7782 7.5564 6.6990
vt -0.5054 3.8187 3.0936
vt 0.7500 0.0670 -0.2500
vt 0.7326 0.0530 0.0117
vt 0.7500 0.2499 -0.2500
vt 0.5000 0.0000 -0.2500
vt 0.2500 0.0670 -0.2500
vt 0.0670 0.2500 -0.2500
vt 0.0670 0.7500 -0.2500
vt 0.5041 0.7474 -0.2500
vt 0.4835 0.5270 -0.1220
vt 0.0335 0.6250 -0.2500
vt 0.0335 0.3750 -0.2500
vt 0.4921 0.3733 -0.2500
vt 0.5013 0.2177 -0.2081
vt 0.6162 0.4068 0.0379
vt 0.6407 0.7466 -0.2500
vt 0.6872 0.2392 0.2619
vt 0.7227 0.7462 -0.2500
vt 0.6967 0.0241 0.5498
vt 0.7500 0.7460 -0.2500
vt 0.6344 0.1783 -0.1558
vt 0.6354 0.3727 -0.2500
vt 0.7115 0.1234 -0.0825
vt 0.7213 0.3724 -0.2500
vt 0.7500 0.3723 -0.2500
vt 0.5445 0.9661 0.6200
vt 0.4254 0.9852 0.8342
vt 0.6876 0.9430 0.3623
vt 0.6601 0.9475 0.4119
vt 0.6629 0.9470 0.4068
vt 0.6629 0.9470 0.4067
vt 0.2500 0.9338 -0.2500
vt 0.5000 1.0000 -0.2500
vt 0.7500 0.9309 -0.2500
vt 0.7500 0.3714 -0.2500
vt 0.0000 0.5000 -0.2500
vt 0.0335 0.6247 -0.2500
vt 0.7500 0.6211 -0.2500
vt 0.9583 0.0000 1.0000
vt 0.1087 0.7500 -0.2500
vt -0.0198 0.0280 0.5498
vt 0.0495 0.0546 0.0117
vt 0.0847 -0.0625 1.2083
vt 0.0014 -0.0625 1.2083
vt 0.0000 0.0000 1.0000
vt 0.0417 0.0000 1.0000
vt 0.6877 0.9430 0.3622
vt 0.6573 0.9479 0.4169
vt 0.5416 0.9665 0.6251
vt 0.5389 0.9670 0.6301
vt 0.5388 0.9670 0.6301
vt 0.5388 0.9670 0.6302
vt 0.5686 0.9622 0.5765
vt 0.4198 0.9861 0.8443
vt 0.4149 0.9869 0.8531
vt 0.4177 0.9864 0.8481
vt 0.4494 0.9813 0.7911
vt 0.6635 0.9469 0.4057
vt 0.6337 0.9517 0.4593
vt 0.6579 0.9478 0.4158
vt 0.6338 0.9517 0.4592
vt 0.5444 0.9661 0.6201
vt 0.5147 0.9708 0.6735
vt 0.3957 0.9900 0.8878
vt 0.4496 0.9813 0.7908
vt 0.3954 0.9900 0.8882
vt 0.4233 0.9855 0.8380
vt 0.4205 0.9860 0.8430
vt 0.4466 0.9818 0.7962
vt 0.5658 0.9626 0.5816
vt 0.6303 0.9523 0.4655
vt 0.6360 0.9513 0.4553
vt 0.6607 0.9474 0.4108
vt 0.3964 0.9899 0.8865
vt 0.3906 0.9908 0.8970
vt 0.4224 0.9857 0.8397
vt 0.5118 0.9713 0.6787
vt 0.5174 0.9704 0.6686
vt 0.6848 0.9435 0.3674
vt 0.6601 0.9475 0.4118
vt 1.0000 0.0000 1.0000
vt 1.1416 -0.1250 1.2083
vt 1.0583 -0.1250 1.2083
vt 0.0752 0.3750 -0.2500
# 151 texture coords

g Pitch
s 4
f -164/-151/-101 -163/-150/-100 -162/-149/-100 -161/-148/-101 
f -160/-147/-99 -164/-151/-101 -161/-148/-101 -159/-146/-99 
f -158/-145/-98 -157/-144/-97 -156/-143/-97 -155/-142/-98 
f -154/-141/-96 -158/-145/-98 -155/-142/-98 -153/-140/-96 
f -152/-139/-95 -154/-141/-96 -153/-140/-96 -151/-138/-95 
f -163/-150/-100 -150/-137/-94 -149/-136/-94 -162/-149/-100 
s 1
f -163/-135/-93 -148/-134/-92 -150/-133/-91 
f -160/-132/-90 -147/-131/-89 -148/-134/-92 
f -157/-130/-88 -158/-129/-87 -146/-128/-86 
s 2
f -145/-127/-85 -144/-126/-84 -148/-134/-92 -146/-125/-86 
s 1
f -163/-135/-93 -164/-124/-83 -148/-134/-92 
f -164/-124/-83 -160/-132/-90 -148/-134/-92 
s 2
f -148/-134/-92 -144/-123/-84 -150/-133/-82 
s 1
f -158/-129/-87 -154/-122/-81 -146/-128/-86 
f -154/-122/-81 -152/-121/-80 -146/-128/-86 
s 2
f -152/-121/-79 -145/-127/-85 -146/-128/-86 
s 3
f -147/-131/-89 -146/-128/-86 -148/-134/-92 
s 1
f -147/-131/-89 -157/-130/-88 -146/-128/-86 
s off
f -143/-120/-78 -142/-120/-78 -141/-119/-78 -140/-118/-78 
f -141/-119/-77 -139/-117/-77 -138/-117/-77 -140/-119/-77 
f -139/-117/-76 -137/-116/-76 -136/-115/-76 -138/-117/-76 
f -135/-114/-75 -134/-113/-75 -133/-112/-75 -132/-114/-75 
f -133/-113/-74 -134/-113/-74 -131/-111/-74 -130/-110/-74 
f -131/-111/-73 -129/-109/-73 -128/-108/-73 -130/-111/-73 
f -128/-109/-72 -129/-109/-72 -135/-114/-72 -132/-107/-72 
f -127/-106/-71 -126/-106/-71 -125/-105/-71 -124/-105/-71 
f -124/-105/-70 -125/-105/-70 -123/-104/-70 -122/-104/-70 
f -123/-104/-69 -121/-103/-69 -120/-103/-69 -122/-104/-69 
f -121/-103/-68 -126/-106/-68 -127/-106/-68 -120/-103/-68 
f -119/-102/-67 -131/-101/-67 -126/-100/-67 -121/-103/-67 -123/-99/-67 -125/-98/-67 -126/-100/-67 -131/-101/-67 -134/-97/-67 -135/-96/-67 -129/-95/-67 -131/-101/-67 -119/-102/-67 -118/-94/-67 -117/-93/-67 -149/-92/-67 -150/-91/-67 -144/-90/-67 -141/-89/-67 -142/-88/-67 -137/-87/-67 -139/-86/-67 -141/-89/-67 -144/-90/-67 -145/-85/-67 -152/-84/-67 -151/-83/-67 -116/-82/-67 
f -116/-81/-66 -151/-83/-66 -153/-80/-66 -155/-79/-66 -156/-78/-66 
s 8
f -115/-77/-66 -114/-76/-65 -113/-75/-64 -112/-74/-66 
f -111/-73/-66 -110/-72/-63 -109/-71/-62 -108/-78/-66 
f -107/-70/-61 -113/-75/-64 -114/-76/-65 -106/-69/-60 
f -105/-68/-59 -107/-70/-61 -106/-69/-60 -104/-67/-58 
f -118/-66/-57 -105/-68/-59 -104/-67/-58 -117/-65/-56 
f -103/-64/-55 -109/-71/-62 -110/-72/-63 -102/-63/-54 
f -101/-62/-53 -103/-64/-55 -102/-63/-54 -100/-61/-52 
f -116/-82/-51 -101/-62/-53 -100/-61/-52 -119/-60/-50 
s off
f -99/-113/-49 -98/-59/-49 -97/-59/-49 -133/-113/-49 
f -96/-105/-71 -95/-58/-71 -94/-58/-71 -124/-105/-71 
f -93/-57/-76 -92/-116/-76 -91/-56/-76 -138/-117/-76 -90/-55/-76 -89/-54/-76 
f -89/-119/-48 -90/-119/-48 -88/-119/-48 -87/-119/-48 
f -86/-120/-47 -85/-120/-47 -84/-120/-47 -83/-120/-47 
f -84/-120/-46 -85/-120/-46 -82/-120/-46 -81/-120/-46 
f -80/-116/-45 -87/-116/-45 -88/-116/-45 -79/-116/-45 
f -78/-111/-44 -77/-111/-44 -76/-111/-44 -75/-111/-44 
f -74/-113/-43 -73/-113/-43 -72/-113/-43 -71/-113/-43 
f -70/-105/-42 -69/-105/-42 -68/-105/-42 -67/-105/-42 
f -66/-104/-41 -65/-104/-41 -64/-104/-41 -63/-104/-41 
f -62/-105/-42 -61/-105/-42 -60/-105/-42 -59/-105/-42 
f -58/-104/-41 -57/-104/-41 -56/-104/-41 -55/-104/-41 
f -60/-105/-40 -61/-105/-40 -94/-105/-40 -95/-105/-40 
f -54/-106/-39 -68/-106/-39 -69/-106/-39 -53/-106/-39 
f -56/-105/-40 -57/-105/-40 -52/-105/-40 -51/-105/-40 
f -50/-106/-39 -63/-106/-39 -64/-106/-39 -49/-106/-39 
f -117/-65/-66 -159/-77/-66 -161/-53/-66 -162/-52/-66 -149/-51/-66 
f -119/-50/-66 -48/-73/-66 -47/-49/-66 -46/-48/-66 -118/-47/-66 
f -46/-46/-38 -159/-146/-38 -115/-77/-38 -112/-45/-38 
f -114/-76/-37 -115/-77/-37 -159/-77/-37 -117/-65/-37 -104/-67/-37 -106/-69/-37 
s 1
f -105/-68/-36 -118/-66/-36 -46/-44/-36 -112/-74/-36 -113/-75/-36 -107/-70/-96 
f -109/-71/-35 -103/-64/-35 -101/-62/-34 -116/-82/-34 -156/-43/-35 -108/-78/-34 
s off
f -157/-42/-33 -147/-41/-33 -47/-40/-33 -48/-39/-33 -156/-143/-33 
s 1
f -48/-73/-32 -119/-60/-32 -100/-61/-32 -102/-63/-31 -110/-72/-31 -111/-73/-31 
s off
f -45/-38/-30 -92/-115/-30 -136/-116/-30 -44/-38/-30 
f -138/-117/-77 -91/-117/-77 -80/-37/-77 -79/-37/-77 
f -99/-36/-29 -133/-113/-29 -74/-35/-29 -71/-34/-29 
f -128/-109/-28 -43/-109/-28 -42/-33/-28 -41/-33/-28 
f -40/-32/-27 -132/-114/-27 -39/-114/-27 -38/-32/-27 
f -59/-31/-70 -96/-105/-70 -124/-105/-70 -62/-31/-70 
f -50/-30/-69 -49/-29/-69 -120/-103/-69 -37/-103/-69 
f -127/-106/-68 -36/-106/-68 -70/-28/-68 -67/-28/-68 
f -35/-120/-30 -81/-27/-30 -82/-27/-30 -44/-38/-30 -136/-116/-30 -143/-120/-30 
f -34/-57/-76 -136/-116/-76 -92/-116/-76 -93/-57/-76 
f -90/-55/-76 -138/-117/-76 -136/-116/-76 -34/-57/-76 
f -140/-119/-77 -138/-117/-77 -79/-37/-77 -33/-26/-77 
f -32/-118/-77 -140/-119/-77 -33/-26/-77 -31/-26/-77 
f -91/-117/-77 -32/-118/-77 -31/-26/-77 -80/-37/-77 
f -35/-120/-30 -92/-115/-30 -45/-38/-30 -81/-27/-30 
f -32/-119/-78 -35/-120/-78 -83/-25/-78 -30/-24/-78 
f -140/-119/-78 -32/-119/-78 -30/-24/-78 -29/-24/-78 
f -143/-120/-78 -140/-119/-78 -29/-24/-78 -86/-25/-78 -83/-25/-78 -35/-120/-78 
f -31/-120/-46 -33/-120/-46 -28/-120/-46 -27/-120/-46 
f -34/-57/-26 -26/-116/-26 -88/-116/-26 -90/-119/-26 
f -25/-120/-47 -26/-116/-47 -34/-57/-47 -93/-57/-47 
f -82/-27/-25 -85/-120/-25 -26/-116/-25 -44/-116/-25 
f -29/-24/-24 -28/-119/-24 -85/-120/-24 -86/-120/-24 
f -79/-37/-23 -88/-116/-23 -28/-119/-23 -33/-120/-23 
f -28/-119/-22 -88/-116/-22 -26/-116/-22 -85/-120/-22 
f -93/-57/-21 -89/-54/-21 -87/-119/-21 -25/-120/-21 
f -25/-120/-45 -45/-38/-45 -44/-38/-45 -26/-116/-45 
f -30/-24/-48 -27/-120/-48 -28/-120/-48 -29/-24/-48 
f -87/-119/-20 -80/-116/-20 -31/-26/-20 -27/-120/-20 
f -27/-120/-19 -30/-24/-19 -83/-25/-19 -84/-120/-19 
f -84/-120/-18 -81/-120/-18 -45/-38/-18 -25/-120/-18 
f -136/-116/-30 -137/-116/-30 -142/-88/-30 -143/-120/-30 
f -128/-109/-27 -132/-114/-27 -40/-32/-27 -77/-23/-27 
f -130/-111/-28 -128/-109/-28 -41/-33/-28 -24/-22/-28 
f -38/-32/-27 -39/-114/-27 -43/-36/-27 -128/-109/-27 -77/-23/-27 -78/-23/-27 
f -98/-59/-49 -99/-113/-49 -39/-107/-49 -23/-32/-49 
f -22/-111/-29 -99/-36/-29 -71/-34/-29 -21/-22/-29 
f -20/-114/-17 -19/-114/-17 -18/-114/-17 -23/-114/-17 
f -23/-32/-49 -39/-107/-49 -132/-114/-49 -20/-32/-49 
f -43/-109/-28 -22/-110/-28 -17/-22/-28 -42/-33/-28 
f -130/-111/-29 -22/-111/-29 -21/-22/-29 -16/-22/-29 
f -22/-110/-28 -130/-111/-28 -24/-22/-28 -17/-22/-28 
f -133/-113/-29 -130/-111/-29 -16/-22/-29 -74/-35/-29 
f -97/-59/-16 -98/-59/-16 -72/-113/-16 -73/-113/-16 
f -15/-111/-15 -73/-113/-15 -74/-113/-15 -16/-22/-15 
f -19/-114/-14 -73/-113/-14 -15/-111/-14 -76/-114/-14 
f -19/-114/-13 -76/-114/-13 -77/-111/-13 -40/-32/-13 
f -76/-114/-12 -15/-111/-12 -24/-22/-12 -41/-33/-12 
f -19/-114/-43 -40/-32/-43 -38/-32/-43 -18/-113/-43 
f -97/-59/-11 -73/-113/-11 -19/-114/-11 -20/-114/-11 
f -24/-22/-16 -15/-111/-16 -14/-111/-16 -17/-113/-16 
f -75/-111/-10 -18/-114/-10 -38/-32/-10 -78/-23/-10 
f -16/-22/-44 -21/-22/-44 -14/-111/-44 -15/-111/-44 
f -41/-33/-17 -42/-33/-17 -75/-111/-17 -76/-111/-17 
f -14/-111/-9 -75/-111/-9 -42/-33/-9 -17/-22/-9 
f -72/-113/-8 -14/-111/-8 -21/-22/-8 -71/-34/-8 
f -23/-32/-7 -18/-114/-7 -72/-113/-7 -98/-59/-7 
f -13/-104/-70 -58/-21/-70 -55/-21/-70 -122/-104/-70 
f -95/-58/-71 -96/-105/-71 -36/-106/-71 -53/-20/-71 
f -13/-104/-70 -96/-105/-70 -59/-31/-70 -58/-21/-70 
f -13/-104/-69 -122/-104/-69 -51/-19/-69 -52/-19/-69 
f -122/-104/-69 -120/-103/-69 -49/-29/-69 -51/-19/-69 
f -37/-103/-68 -120/-103/-68 -65/-18/-68 -66/-18/-68 
f -120/-103/-68 -127/-106/-68 -67/-28/-68 -65/-18/-68 
f -36/-106/-68 -37/-103/-68 -66/-18/-68 -70/-28/-68 
f -53/-20/-71 -36/-106/-71 -127/-106/-71 -54/-20/-71 
f -56/-104/-6 -61/-105/-6 -62/-105/-6 -55/-21/-6 
f -94/-58/-22 -61/-105/-22 -68/-105/-22 -54/-106/-22 
f -67/-28/-6 -68/-105/-6 -64/-106/-6 -65/-104/-6 
f -49/-29/-5 -64/-106/-5 -56/-104/-5 -51/-105/-5 
f -64/-106/-6 -68/-105/-6 -61/-105/-6 -56/-104/-6 
f -70/-105/-4 -66/-18/-4 -63/-104/-4 -69/-106/-4 
f -60/-105/-3 -95/-105/-3 -53/-20/-3 -69/-106/-3 
f -63/-104/-2 -50/-106/-2 -52/-19/-2 -57/-105/-2 
f -57/-105/-4 -58/-104/-4 -59/-31/-4 -60/-105/-4 
f -12/-106/-39 -69/-106/-39 -63/-103/-39 -11/-103/-39 
f -60/-105/-42 -69/-106/-42 -12/-106/-42 -10/-105/-42 
f -9/-104/-40 -57/-104/-40 -60/-105/-40 -10/-105/-40 
f -63/-103/-41 -57/-104/-41 -9/-104/-41 -11/-103/-41 
f -18/-114/-3 -75/-111/-3 -75/-111/-3 -18/-114/-3 -72/-113/-3 -14/-111/-3 -75/-111/-3 -75/-111/-3 -14/-111/-3 -72/-113/-3 
f -8/-109/-39 -7/-114/-39 -18/-114/-39 -75/-109/-39 
f -8/-109/-71 -75/-109/-71 -14/-111/-71 -6/-111/-71 
f -6/-111/-40 -14/-111/-40 -72/-113/-40 -5/-113/-40 
f -18/-114/-42 -7/-114/-42 -5/-113/-42 -72/-113/-42 
f -4/-116/-45 -25/-116/-45 -87/-117/-45 -3/-117/-45 
f -2/-120/-47 -84/-120/-47 -25/-116/-47 -4/-116/-47 
f -1/-119/-46 -27/-119/-46 -84/-120/-46 -2/-120/-46 
f -27/-119/-48 -1/-119/-48 -3/-117/-48 -87/-117/-48 
f -11/-17/-1 -37/-103/-1 -36/-106/-1 -12/-16/-1 
f -99/-113/-1 -5/-113/-1 -7/-15/-1 -39/-114/-1 
f -32/-14/-1 -1/-13/-1 -2/-12/-1 -35/-120/-1 
f -62/-31/-70 -124/-105/-70 -122/-104/-70 -55/-21/-70 
f -54/-20/-71 -127/-106/-71 -124/-105/-71 -94/-58/-71 
f -37/-103/-69 -13/-104/-69 -52/-19/-69 -50/-30/-69 
f -11/-17/-1 -9/-11/-1 -13/-10/-1 -37/-103/-1 
f -96/-105/-1 -10/-9/-1 -12/-16/-1 -36/-106/-1 
f -9/-11/-1 -10/-9/-1 -96/-105/-1 -13/-10/-1 
f -22/-8/-5 -6/-7/-5 -5/-113/-5 -99/-113/-5 
f -7/-15/-1 -8/-109/-1 -43/-109/-1 -39/-114/-1 
f -8/-109/-67 -6/-7/-67 -22/-8/-67 -43/-109/-67 
f -20/-32/-49 -132/-114/-49 -133/-113/-49 -97/-59/-49 
f -2/-12/-1 -4/-6/-1 -92/-116/-1 -35/-120/-1 
f -91/-117/-1 -3/-5/-1 -1/-13/-1 -32/-14/-1 
f -4/-6/-1 -3/-5/-1 -91/-117/-1 -92/-116/-1 
f -47/-4/-38 -147/-3/-38 -160/-2/-38 -159/-146/-38 -46/-46/-38 
f -108/-1/-33 -156/-143/-33 -48/-39/-33 -111/-73/-33 
# 159 polygons - 11 triangles

