# 3ds Max Wavefront OBJ Exporter v0.97b - (c)2007 guruware
# File Created: 28.11.2015 14:48:48

#
# object Base
#

v  0.2000 0.0000 -0.0000
v  0.1732 0.1000 0.0000
v  0.1732 0.1000 0.1000
v  0.2000 -0.0000 0.1000
v  0.1000 0.1732 0.0000
v  0.1000 0.1732 0.1000
v  -0.0000 0.2000 0.0000
v  -0.0000 0.2000 0.1000
v  -0.1000 0.1732 0.0000
v  -0.1000 0.1732 0.1000
v  -0.1732 0.1000 0.0000
v  -0.1732 0.1000 0.1000
v  -0.2000 0.0000 0.0000
v  -0.2000 0.0000 0.1000
v  -0.1732 -0.1000 -0.0000
v  -0.1732 -0.1000 0.1000
v  -0.1000 -0.1732 -0.0000
v  -0.1000 -0.1732 0.1000
v  -0.0000 -0.2000 -0.0000
v  -0.0000 -0.2000 0.1000
v  0.1000 -0.1732 -0.0000
v  0.1000 -0.1732 0.1000
v  0.1732 -0.1000 -0.0000
v  0.1732 -0.1000 0.1000
v  0.0482 0.0835 -0.1000
v  0.0835 0.0482 -0.1000
v  0.0965 0.0000 -0.1000
v  0.0835 -0.0482 -0.1000
v  0.0482 -0.0835 -0.1000
v  -0.0000 -0.0965 -0.1000
v  -0.0482 -0.0835 -0.1000
v  -0.0835 -0.0482 -0.1000
v  -0.0965 0.0000 -0.1000
v  -0.0835 0.0482 -0.1000
v  -0.0482 0.0835 -0.1000
v  -0.0000 0.0965 -0.1000
v  -0.0000 -0.0965 0.2000
v  0.0482 -0.0835 0.2000
v  0.0835 -0.0482 0.2000
v  0.0965 0.0000 0.2000
v  0.0835 0.0482 0.2000
v  0.0482 0.0835 0.2000
v  -0.0000 0.0965 0.2000
v  -0.0482 0.0835 0.2000
v  -0.0835 0.0482 0.2000
v  -0.0965 0.0000 0.2000
v  -0.0835 -0.0482 0.2000
v  -0.0482 -0.0835 0.2000
v  0.0318 0.2155 -0.0982
v  -0.0000 0.2329 -0.1073
v  -0.0000 0.2026 -0.1365
v  -0.0318 0.2155 -0.0982
v  0.1707 -0.1353 -0.0982
v  0.2017 -0.1164 -0.1073
v  0.1754 -0.1013 -0.1365
v  0.2025 -0.0802 -0.0982
v  -0.2025 -0.0802 -0.0982
v  -0.2017 -0.1164 -0.1073
v  -0.1754 -0.1013 -0.1365
v  -0.1707 -0.1353 -0.0982
v  0.0318 0.2155 -0.3881
v  -0.0000 0.2329 -0.3973
v  -0.0000 0.2026 -0.4265
v  -0.0318 0.2155 -0.3881
v  -0.2025 -0.0802 -0.3881
v  -0.2017 -0.1164 -0.3973
v  -0.1754 -0.1013 -0.4265
v  -0.1707 -0.1353 -0.3881
v  0.1707 -0.1353 -0.3881
v  0.2017 -0.1164 -0.3973
v  0.1754 -0.1013 -0.4265
v  0.2025 -0.0802 -0.3881
# 72 vertices

vn 0.9638 0.1320 -0.2318
vn 0.8048 0.4647 -0.3692
vn 0.8048 0.4647 0.3692
vn 0.9293 -0.0000 0.3692
vn 0.5876 0.7719 -0.2426
vn 0.4647 0.8048 0.3692
vn 0.0094 0.9901 0.1398
vn -0.0000 0.9293 0.3692
vn -0.5962 0.7686 -0.2318
vn -0.4647 0.8048 0.3692
vn -0.8048 0.4647 -0.3692
vn -0.8048 0.4647 0.3692
vn -0.9623 0.1230 -0.2426
vn -0.9293 0.0000 0.3692
vn -0.8622 -0.4870 0.1398
vn -0.8048 -0.4647 0.3692
vn -0.3675 -0.9007 -0.2318
vn -0.4647 -0.8048 0.3692
vn -0.0000 -0.9293 -0.3692
vn -0.0000 -0.9293 0.3692
vn 0.3747 -0.8949 -0.2426
vn 0.4647 -0.8048 0.3692
vn 0.8528 -0.5032 0.1398
vn 0.8048 -0.4647 0.3692
vn 0.3202 0.1327 -0.9380
vn 0.3687 0.2129 -0.9049
vn 0.2657 0.2165 -0.9394
vn -0.1659 0.0958 -0.9815
vn -0.0451 -0.3437 -0.9380
vn -0.0000 -0.4257 -0.9049
vn 0.0547 -0.3383 -0.9394
vn 0.1659 0.0958 -0.9815
vn -0.2750 0.2109 -0.9380
vn -0.3687 0.2129 -0.9049
vn -0.3203 0.1218 -0.9394
vn 0.0000 -0.1916 -0.9815
vn -0.0000 -0.4257 0.9049
vn 0.2129 -0.3687 0.9049
vn 0.3687 -0.2129 0.9049
vn 0.4257 -0.0000 0.9049
vn 0.3687 0.2129 0.9049
vn 0.2129 0.3687 0.9049
vn -0.0000 0.4257 0.9049
vn -0.2129 0.3687 0.9049
vn -0.3687 0.2129 0.9049
vn -0.4257 0.0000 0.9049
vn -0.3687 -0.2129 0.9049
vn -0.2129 -0.3687 0.9049
vn 0.8273 0.5265 -0.1959
vn 0.0129 0.9946 0.1025
vn 0.0173 -0.8823 -0.4704
vn -0.7806 0.5660 -0.2652
vn 0.0423 -0.9797 -0.1959
vn 0.8549 -0.5085 0.1025
vn -0.7727 0.4262 -0.4704
vn 0.8805 0.3930 -0.2652
vn -0.8696 0.4532 -0.1959
vn -0.8679 -0.4861 0.1025
vn 0.7554 0.4561 -0.4704
vn -0.0999 -0.9590 -0.2652
vn 0.9677 -0.0325 -0.2501
vn -0.0000 0.9169 -0.3991
vn 0.0000 -0.3711 -0.9286
vn -0.9677 -0.0325 -0.2501
vn -0.4557 0.8543 -0.2501
vn -0.7941 -0.4585 -0.3991
vn 0.3214 0.1856 -0.9286
vn 0.5120 -0.8218 -0.2501
vn -0.5120 -0.8218 -0.2501
vn 0.7941 -0.4585 -0.3991
vn -0.3214 0.1856 -0.9286
vn 0.4557 0.8543 -0.2501
# 72 vertex normals

vt 0.7500 0.0000 1.0000
vt 0.8333 0.0000 1.0000
vt 0.8333 1.0000 1.0000
vt 0.7500 1.0000 1.0000
vt 0.9167 0.0000 1.0000
vt 0.9167 1.0000 1.0000
vt 1.0000 0.0000 1.0000
vt 1.0000 1.0000 1.0000
vt 0.0000 0.0000 1.0000
vt 0.0833 0.0000 1.0000
vt 0.0833 1.0000 1.0000
vt 0.0000 1.0000 1.0000
vt 0.1667 0.0000 1.0000
vt 0.1667 1.0000 1.0000
vt 0.2500 0.0000 1.0000
vt 0.2500 1.0000 1.0000
vt 0.3333 0.0000 1.0000
vt 0.3333 1.0000 1.0000
vt 0.4167 0.0000 1.0000
vt 0.4167 1.0000 1.0000
vt 0.5000 0.0000 1.0000
vt 0.5000 1.0000 1.0000
vt 0.5833 0.0000 1.0000
vt 0.5833 1.0000 1.0000
vt 0.6667 0.0000 1.0000
vt 0.6667 1.0000 1.0000
vt 0.0670 0.7500 -0.2500
vt 0.2500 0.9330 -0.2500
vt 0.5000 1.0000 -0.2500
vt 0.7500 0.9330 -0.2500
vt 0.9330 0.7500 -0.2500
vt 1.0000 0.5000 -0.2500
vt 0.9330 0.2500 -0.2500
vt 0.7500 0.0670 -0.2500
vt 0.5000 0.0000 -0.2500
vt 0.2500 0.0670 -0.2500
vt 0.0670 0.2500 -0.2500
vt 0.0000 0.5000 -0.2500
vt 1.0000 0.5000 0.2500
vt 0.9330 0.7500 0.2500
vt 0.7500 0.9330 0.2500
vt 0.5000 1.0000 0.2500
vt 0.2500 0.9330 0.2500
vt 0.0670 0.7500 0.2500
vt 0.0000 0.5000 0.2500
vt 0.0670 0.2500 0.2500
vt 0.2500 0.0670 0.2500
vt 0.5000 0.0000 0.2500
vt 0.7500 0.0670 0.2500
vt 0.9330 0.2500 0.2500
# 50 texture coords

g Base
s 1
f -72/-50/-72 -71/-49/-71 -70/-48/-70 -69/-47/-69 
f -71/-49/-71 -68/-46/-68 -67/-45/-67 -70/-48/-70 
f -68/-46/-68 -66/-44/-66 -65/-43/-65 -67/-45/-67 
f -66/-42/-66 -64/-41/-64 -63/-40/-63 -65/-39/-65 
f -64/-41/-64 -62/-38/-62 -61/-37/-61 -63/-40/-63 
f -62/-38/-62 -60/-36/-60 -59/-35/-59 -61/-37/-61 
f -60/-36/-60 -58/-34/-58 -57/-33/-57 -59/-35/-59 
f -58/-34/-58 -56/-32/-56 -55/-31/-55 -57/-33/-57 
f -56/-32/-56 -54/-30/-54 -53/-29/-53 -55/-31/-55 
f -54/-30/-54 -52/-28/-52 -51/-27/-51 -53/-29/-53 
f -52/-28/-52 -50/-26/-50 -49/-25/-49 -51/-27/-51 
f -50/-26/-50 -72/-50/-72 -69/-47/-69 -49/-25/-49 
f -48/-24/-48 -47/-23/-47 -46/-22/-46 -45/-21/-45 -44/-20/-44 -43/-19/-43 -42/-18/-42 -41/-17/-41 -40/-16/-40 -39/-15/-39 -38/-14/-38 -37/-13/-37 
f -36/-12/-36 -35/-11/-35 -34/-10/-34 -33/-9/-33 -32/-8/-32 -31/-7/-31 -30/-6/-30 -29/-5/-29 -28/-4/-28 -27/-3/-27 -26/-2/-26 -25/-1/-25 
f -69/-47/-69 -70/-48/-70 -32/-8/-32 -33/-9/-33 
f -70/-48/-70 -67/-45/-67 -31/-7/-31 -32/-8/-32 
f -67/-45/-67 -65/-43/-65 -30/-6/-30 -31/-7/-31 
f -65/-39/-65 -63/-40/-63 -29/-5/-29 -30/-6/-30 
f -63/-40/-63 -61/-37/-61 -28/-4/-28 -29/-5/-29 
f -61/-37/-61 -59/-35/-59 -27/-3/-27 -28/-4/-28 
f -59/-35/-59 -57/-33/-57 -26/-2/-26 -27/-3/-27 
f -57/-33/-57 -55/-31/-55 -25/-1/-25 -26/-2/-26 
f -55/-31/-55 -53/-29/-53 -36/-12/-36 -25/-1/-25 
f -53/-29/-53 -51/-27/-51 -35/-11/-35 -36/-12/-36 
f -51/-27/-51 -49/-25/-49 -34/-10/-34 -35/-11/-35 
f -49/-25/-49 -69/-47/-69 -33/-9/-33 -34/-10/-34 
f -71/-49/-71 -72/-50/-72 -46/-22/-46 -47/-23/-47 
f -52/-28/-52 -54/-30/-54 -43/-19/-43 -44/-20/-44 
f -54/-30/-54 -56/-32/-56 -42/-18/-42 -43/-19/-43 
f -60/-36/-60 -62/-38/-62 -39/-15/-39 -40/-16/-40 
f -62/-38/-62 -64/-41/-64 -38/-14/-38 -39/-15/-39 
f -68/-46/-68 -71/-49/-71 -47/-23/-47 -48/-24/-48 
f -66/-44/-66 -68/-46/-68 -24/-46/-24 -23/-42/-23 
f -68/-46/-68 -48/-24/-48 -22/-24/-22 -24/-46/-24 
f -48/-24/-48 -37/-13/-37 -22/-24/-22 
f -37/-13/-37 -38/-14/-38 -22/-24/-22 
f -38/-14/-38 -64/-41/-64 -21/-41/-21 -22/-24/-22 
f -64/-41/-64 -66/-42/-66 -23/-42/-23 -21/-41/-21 
f -50/-26/-50 -52/-28/-52 -20/-28/-20 -19/-26/-19 
f -52/-28/-52 -44/-20/-44 -18/-20/-18 -20/-28/-20 
f -44/-20/-44 -45/-21/-45 -18/-20/-18 
f -45/-21/-45 -46/-22/-46 -18/-20/-18 
f -46/-22/-46 -72/-50/-72 -17/-50/-17 -18/-20/-18 
f -72/-50/-72 -50/-26/-50 -19/-26/-19 -17/-50/-17 
f -58/-34/-58 -60/-36/-60 -16/-36/-16 -15/-34/-15 
f -60/-36/-60 -40/-16/-40 -14/-16/-14 -16/-36/-16 
f -40/-16/-40 -41/-17/-41 -14/-16/-14 
f -41/-17/-41 -42/-18/-42 -14/-16/-14 
f -42/-18/-42 -56/-32/-56 -13/-32/-13 -14/-16/-14 
f -56/-32/-56 -58/-34/-58 -15/-34/-15 -13/-32/-13 
f -23/-42/-23 -24/-46/-24 -12/-46/-12 -11/-42/-11 
f -24/-46/-24 -22/-24/-22 -10/-24/-10 -12/-46/-12 
f -22/-24/-22 -21/-41/-21 -9/-41/-9 -10/-24/-10 
f -21/-41/-21 -23/-42/-23 -11/-42/-11 -9/-41/-9 
f -15/-34/-15 -16/-36/-16 -8/-36/-8 -7/-34/-7 
f -16/-36/-16 -14/-16/-14 -6/-16/-6 -8/-36/-8 
f -14/-16/-14 -13/-32/-13 -5/-32/-5 -6/-16/-6 
f -13/-32/-13 -15/-34/-15 -7/-34/-7 -5/-32/-5 
f -19/-26/-19 -20/-28/-20 -4/-28/-4 -3/-26/-3 
f -20/-28/-20 -18/-20/-18 -2/-20/-2 -4/-28/-4 
f -18/-20/-18 -17/-50/-17 -1/-50/-1 -2/-20/-2 
f -17/-50/-17 -19/-26/-19 -3/-26/-3 -1/-50/-1 
f -12/-46/-12 -10/-24/-10 -11/-42/-11 
f -8/-36/-8 -6/-16/-6 -7/-34/-7 
f -4/-28/-4 -2/-20/-2 -3/-26/-3 
f -10/-24/-10 -9/-41/-9 -11/-42/-11 
f -6/-16/-6 -5/-32/-5 -7/-34/-7 
f -2/-20/-2 -1/-50/-1 -3/-26/-3 
# 56 polygons - 12 triangles

